<svg width="171" height="53" viewBox="0 0 171 53" fill="none" xmlns="http://www.w3.org/2000/svg">
<path d="M14.0436 28.0972H34.61V28.7845C34.61 38.0827 26.7417 45.4 17.9387 45.4C8.90196 45.4 0.994812 38.204 0.994812 28.3802C0.994812 18.7585 8.86301 11.3604 17.744 11.3604C25.6511 11.3604 31.4159 16.9393 33.0129 21.5884H26.0406C24.6773 19.4054 21.7949 16.9797 17.6271 16.9797C10.5379 17.0202 6.83754 23.3268 6.83754 28.4206C6.83754 33.3932 10.46 39.7402 17.9387 39.7402C21.7949 39.7402 25.4174 37.5167 27.2481 33.7166H14.0436V28.0972Z" fill="#055AAB"/>
<path d="M91.0507 33.9992C91.0507 30.3203 92.4919 27.0457 94.868 24.7009V11.1982C94.868 11.1982 90.7001 11.4812 90.6612 16.5751C90.5833 21.6284 90.6612 25.6712 90.6612 25.6712V25.7116C88.6357 23.6498 85.8702 22.3561 82.754 22.3561C76.5607 22.3561 71.536 27.5712 71.536 33.9992C71.536 40.4271 76.5607 45.6422 82.754 45.6422C85.8702 45.6422 88.7136 44.3081 90.778 42.1654C91.0507 42.974 91.9076 44.5102 94.9069 44.5102V43.2974C92.5309 40.9526 91.0507 37.5972 91.0507 33.9992ZM82.793 40.1845C79.4821 40.1845 76.7945 37.395 76.7945 33.9587C76.7945 30.5224 79.4821 27.7329 82.793 27.7329C86.1039 27.7329 88.7915 30.5224 88.7915 33.9587C88.7526 37.4355 86.0649 40.1845 82.793 40.1845Z" fill="#096DBF"/>
<path d="M111.461 16.5346C111.383 21.588 111.461 25.6307 111.461 25.6307V25.6712C109.436 23.6094 106.67 22.3157 103.554 22.3157C97.3607 22.3157 92.3359 27.5308 92.3359 33.9587C92.3359 40.3866 97.3607 45.6017 103.554 45.6017C106.67 45.6017 109.514 44.2677 111.578 42.125C111.851 42.9336 112.708 44.4698 115.707 44.4698V11.1982C115.668 11.1982 111.539 11.4812 111.461 16.5346ZM103.554 40.1845C100.243 40.1845 97.5554 37.395 97.5554 33.9587C97.5554 30.5224 100.243 27.7329 103.554 27.7329C106.865 27.7329 109.552 30.5224 109.552 33.9587C109.552 37.4355 106.865 40.1845 103.554 40.1845Z" fill="url(#paint0_linear_727_2342)"/>
<path d="M38.466 24.0138H42.8286V25.833H42.9065C43.8024 24.4989 44.6982 23.2861 47.1522 23.2861H47.5417V28.097C43.257 28.2991 43.257 31.8163 43.257 33.0695V44.6317H38.466V24.0138Z" fill="#0762B3"/>
<path d="M69.5885 44.6316H65.2259V42.0442C63.7457 43.9039 60.7854 45.238 58.2925 45.238C53.1899 45.238 48.6326 40.9931 48.6326 34.1205C48.6326 27.8139 53.073 23.2456 58.5652 23.2456C62.6162 23.2456 65.0311 26.2776 65.148 26.5202H65.2259V23.8924H69.5885V44.6316ZM59.2663 27.8543C55.3712 27.8543 53.3457 31.331 53.3457 34.4439C53.3457 37.9207 55.8775 40.791 59.2663 40.791C62.5383 40.791 65.0701 38.1228 65.0701 34.2822C65.0701 29.9969 62.1098 27.8543 59.2663 27.8543Z" fill="#0867B9"/>
<path d="M120.186 17.1816H124.977V21.7095H120.186V17.1816ZM120.186 24.0138H124.977V44.6317H120.186V24.0138Z" fill="#0B7ACB"/>
<path d="M128.795 24.0138H133.196V25.7926C134.014 24.9841 135.65 23.2861 138.61 23.2861C140.324 23.2861 142.934 24.0947 144.57 26.1565C146.401 28.4204 146.401 31.8567 146.401 33.4333V44.5912H141.61V34.444C141.61 32.7461 141.61 27.814 137.598 27.814C136.741 27.814 135.183 28.2587 134.365 29.6332C133.508 30.8864 133.508 33.0291 133.508 34.7674V44.5912H128.717L128.795 24.0138Z" fill="#0D7FD1"/>
<path d="M170.59 24.0138V40.8315C170.59 50.7362 163.539 53.0001 159.761 53.0001C155.671 53.0001 151.503 50.7766 149.79 46.1679H155.204C157.074 48.4722 159.372 48.4722 160.073 48.4722C162.76 48.4722 165.916 46.5317 166.149 42.0443L166.071 41.9635C165.409 42.8933 163.578 45.2381 159.566 45.2381C154.736 45.2381 149.4 40.9528 149.4 34.0802C149.4 27.6118 154.464 23.2861 159.527 23.2861C163.617 23.2861 165.331 25.7118 165.877 26.4799H165.954V23.9734L170.59 24.0138ZM160.034 27.8544C157.151 27.8544 154.23 30.28 154.23 34.161C154.23 38.3655 157.268 40.7911 160.151 40.7911C163.033 40.7911 165.838 38.2442 165.838 34.1206C165.838 31.2099 163.539 27.8544 160.034 27.8544Z" fill="#0E85D7"/>
<path d="M4.30561 11.1175C4.30561 11.1175 11.0832 2.10221 20.7431 6.71091L23.9761 3.43631L10.382 0L0.410461 11.1175H4.30561Z" fill="#055AAB"/>
<path d="M7.11022 13.5024L6.29224 10.8342C6.29224 10.8342 9.2136 6.42765 18.8346 6.87235L20.159 10.1874C20.159 10.1874 13.5762 9.01499 7.11022 13.5024Z" fill="#055AAB"/>
<path d="M2.94224 17.505C3.50156 17.505 3.95498 17.0344 3.95498 16.4539C3.95498 15.8734 3.50156 15.4028 2.94224 15.4028C2.38292 15.4028 1.9295 15.8734 1.9295 16.4539C1.9295 17.0344 2.38292 17.505 2.94224 17.505Z" fill="#055AAB"/>
<path d="M3.13713 10.6729H2.74762V16.3327H3.13713V10.6729Z" fill="#055AAB"/>
<defs>
<linearGradient id="paint0_linear_727_2342" x1="115.707" y1="28.4" x2="92.3359" y2="28.4" gradientUnits="userSpaceOnUse">
<stop stop-color="#0E86D8"/>
<stop offset="1" stop-color="#055AAB"/>
</linearGradient>
</defs>
</svg>
